<?xml version="1.0" encoding="utf-8"?>
<!-- Generator: Adobe Illustrator 25.4.1, SVG Export Plug-In . SVG Version: 6.00 Build 0)  -->
<svg version="1.1" id="Layer_1" xmlns="http://www.w3.org/2000/svg" xmlns:xlink="http://www.w3.org/1999/xlink" x="0px" y="0px"
	 viewBox="0 0 55 30" style="enable-background:new 0 0 55 30;" xml:space="preserve">
<style type="text/css">
	.st0{fill:#FFFFFF;}
	.st1{clip-path:url(#SVGID_00000132801417913342499060000013486963921831349918_);fill:#FFFFFF;}
</style>
<polygon class="st0" points="28.4,0.3 28.4,4.9 30.2,4.9 30.2,4.4 29.1,4.4 29.1,2.8 29.9,2.8 29.9,2.3 29.1,2.3 29.1,0.8 30.2,0.8 
	30.2,0.3 "/>
<path class="st0" d="M2.1,2.2h1.1v4.2H2.1V2.2z M0.2,0.3v6.1v1.9v6.1H5v-1.9h-3V8.3h3V6.4V0.3H0.2z"/>
<polygon class="st0" points="6.3,0.3 6.3,6.4 6.3,8.3 9.2,8.3 9.2,12.5 6.3,12.5 6.3,14.4 11.1,14.4 11.1,8.3 11.1,6.4 8.2,6.4 
	8.2,2.2 11.1,2.2 11.1,0.3 "/>
<path class="st0" d="M14.2,23.6h1.1v4.2h-1.1V23.6z M12.4,15.6v1.9h3v4.2h-3v1.9v6.1h4.9v-6.1v-1.9v-6.1H12.4z"/>
<path class="st0" d="M20.3,17.5h1.1v4.2h-1.1V17.5z M18.4,15.6v6.1v1.9v6.1h1.9v-6.1h3v-1.9v-6.1H18.4z"/>
<rect x="12.4" y="0.3" class="st0" width="10.9" height="14.1"/>
<rect x="0.2" y="15.6" class="st0" width="10.9" height="14.1"/>
<g>
	<defs>
		<rect id="SVGID_1_" x="0.2" y="0.3" width="54.4" height="29.4"/>
	</defs>
	<clipPath id="SVGID_00000072986873683071024550000016683504522878245552_">
		<use xlink:href="#SVGID_1_"  style="overflow:visible;"/>
	</clipPath>
	<path style="clip-path:url(#SVGID_00000072986873683071024550000016683504522878245552_);fill:#FFFFFF;" d="M32.5,4.9
		C32.3,4.9,32.1,5,31.9,5c-0.2,0-0.4,0-0.5-0.1c-0.2-0.1-0.3-0.1-0.4-0.2c-0.1-0.1-0.2-0.2-0.2-0.4c-0.1-0.1-0.1-0.3-0.1-0.5
		c0-0.2,0-0.4,0-0.6V0.3h0.7v2.9c0,0.1,0,0.3,0,0.4c0,0.1,0,0.2,0,0.3c0,0.1,0.1,0.2,0.1,0.3c0,0.1,0.1,0.1,0.2,0.2
		c0.1,0,0.2,0.1,0.3,0.1c0.1,0,0.2,0,0.3-0.1c0.1,0,0.1-0.1,0.2-0.2c0-0.1,0.1-0.2,0.1-0.3c0-0.1,0-0.2,0-0.3c0-0.1,0-0.2,0-0.4V0.3
		h0.7v2.9c0,0.2,0,0.4,0,0.6c0,0.2-0.1,0.3-0.1,0.5c-0.1,0.1-0.1,0.3-0.2,0.4C32.7,4.8,32.6,4.8,32.5,4.9"/>
	<path style="clip-path:url(#SVGID_00000072986873683071024550000016683504522878245552_);fill:#FFFFFF;" d="M33.8,4.9V0.3h0.8
		c0.5,0,0.9,0.1,1.1,0.3c0.2,0.2,0.4,0.5,0.4,0.9c0,0.3-0.1,0.5-0.1,0.7c-0.1,0.2-0.2,0.3-0.4,0.4l0.7,2.3h-0.7L35,2.8h-0.5v2.1
		H33.8z M34.5,2.3h0.2c0.3,0,0.5-0.1,0.6-0.2c0.1-0.1,0.2-0.3,0.2-0.6c0-0.3-0.1-0.5-0.2-0.6c-0.1-0.1-0.3-0.2-0.6-0.2h-0.2V2.3z"/>
	<path style="clip-path:url(#SVGID_00000072986873683071024550000016683504522878245552_);fill:#FFFFFF;" d="M37.8,5
		c-0.2,0-0.4,0-0.6-0.1c-0.2-0.1-0.3-0.2-0.4-0.3c-0.1-0.1-0.2-0.3-0.2-0.5c0-0.2-0.1-0.4-0.1-0.6V1.8c0-0.2,0-0.5,0.1-0.6
		c0-0.2,0.1-0.3,0.2-0.5c0.1-0.1,0.2-0.2,0.4-0.3c0.2-0.1,0.4-0.1,0.6-0.1c0.4,0,0.8,0.1,1,0.4c0.2,0.3,0.3,0.6,0.3,1.1v1.7
		c0,0.2,0,0.4-0.1,0.6s-0.1,0.3-0.2,0.5c-0.1,0.1-0.2,0.2-0.4,0.3C38.3,4.9,38.1,5,37.8,5 M37.4,4.2c0.1,0.1,0.2,0.2,0.5,0.2
		c0.2,0,0.4-0.1,0.5-0.2c0.1-0.1,0.1-0.3,0.1-0.6v-2c0-0.3,0-0.5-0.1-0.6c-0.1-0.1-0.2-0.2-0.5-0.2c-0.2,0-0.4,0.1-0.5,0.2
		c-0.1,0.1-0.1,0.3-0.1,0.6v2C37.2,3.9,37.3,4.1,37.4,4.2"/>
	<path style="clip-path:url(#SVGID_00000072986873683071024550000016683504522878245552_);fill:#FFFFFF;" d="M39.6,4.9V0.3h1.1
		c0.8,0,1.1,0.4,1.1,1.3c0,0.4-0.1,0.7-0.3,0.9c-0.2,0.2-0.5,0.3-0.8,0.3h-0.5v2.1H39.6z M40.3,2.3h0.2c0.1,0,0.3,0,0.4,0
		c0.1,0,0.2,0,0.3-0.1c0.1,0,0.1-0.1,0.2-0.2c0-0.1,0-0.2,0-0.3c0-0.2,0-0.3,0-0.4c0-0.1-0.1-0.2-0.1-0.3C41,0.9,41,0.9,40.9,0.9
		c-0.1,0-0.2,0-0.4,0h-0.2V2.3z"/>
	<polygon style="clip-path:url(#SVGID_00000072986873683071024550000016683504522878245552_);fill:#FFFFFF;" points="42.3,4.9 
		42.3,0.3 44.1,0.3 44.1,0.8 43,0.8 43,2.3 43.8,2.3 43.8,2.8 43,2.8 43,4.4 44.1,4.4 44.1,4.9 	"/>
	<path style="clip-path:url(#SVGID_00000072986873683071024550000016683504522878245552_);fill:#FFFFFF;" d="M44.4,4.9l1-4.6h0.7
		l1,4.6h-0.7l-0.2-1.1h-0.8l-0.2,1.1H44.4z M45.4,3.3h0.7l-0.3-2L45.4,3.3z"/>
	<polygon style="clip-path:url(#SVGID_00000072986873683071024550000016683504522878245552_);fill:#FFFFFF;" points="47.5,4.9 
		47.5,0.3 48,0.3 49.1,3.2 49.1,0.3 49.8,0.3 49.8,4.9 49.3,4.9 48.1,1.9 48.1,4.9 	"/>
	<path style="clip-path:url(#SVGID_00000072986873683071024550000016683504522878245552_);fill:#FFFFFF;" d="M29.6,11.1
		c-0.4,0-0.7-0.1-0.9-0.4c-0.2-0.2-0.3-0.6-0.4-1L29,9.6c0,0.7,0.3,1,0.7,1c0.3,0,0.5-0.2,0.5-0.5c0-0.1,0-0.2,0-0.3
		c0-0.1-0.1-0.2-0.1-0.2c-0.1-0.1-0.1-0.1-0.1-0.2c0,0-0.1-0.1-0.2-0.2l-0.8-0.7c-0.2-0.1-0.3-0.3-0.4-0.4c-0.1-0.2-0.1-0.4-0.1-0.6
		c0-0.3,0.1-0.6,0.3-0.8c0.2-0.2,0.5-0.3,0.8-0.3c0.4,0,0.7,0.1,0.9,0.3c0.2,0.2,0.4,0.4,0.4,0.8c0,0,0,0.1,0,0.1l-0.7,0.2
		c0,0,0-0.1,0-0.1c0-0.2-0.1-0.4-0.2-0.5C29.8,7.1,29.6,7,29.4,7c-0.2,0-0.3,0-0.4,0.1C29,7.2,29,7.3,29,7.5c0,0.3,0.1,0.5,0.3,0.6
		l0.8,0.7c0.4,0.4,0.7,0.8,0.7,1.3c0,0.3-0.1,0.6-0.3,0.8C30.2,11,30,11.1,29.6,11.1"/>
	<path style="clip-path:url(#SVGID_00000072986873683071024550000016683504522878245552_);fill:#FFFFFF;" d="M32.5,11.1
		c-0.2,0-0.4,0-0.6-0.1c-0.2-0.1-0.3-0.2-0.4-0.3c-0.1-0.1-0.2-0.3-0.2-0.5c0-0.2-0.1-0.4-0.1-0.6V8c0-0.2,0-0.5,0.1-0.6
		c0-0.2,0.1-0.3,0.2-0.5c0.1-0.1,0.2-0.2,0.4-0.3c0.2-0.1,0.4-0.1,0.6-0.1c0.4,0,0.8,0.1,1,0.4c0.2,0.3,0.3,0.6,0.3,1.1v1.7
		c0,0.2,0,0.4-0.1,0.6c0,0.2-0.1,0.3-0.2,0.5C33.3,10.9,33.2,11,33,11C32.9,11.1,32.7,11.1,32.5,11.1 M32,10.4
		c0.1,0.1,0.2,0.2,0.5,0.2c0.2,0,0.4-0.1,0.5-0.2c0.1-0.1,0.1-0.3,0.1-0.6v-2c0-0.3,0-0.5-0.1-0.6C32.8,7.1,32.7,7,32.5,7
		c-0.2,0-0.4,0.1-0.5,0.2c-0.1,0.1-0.1,0.3-0.1,0.6v2C31.8,10.1,31.9,10.3,32,10.4"/>
	<path style="clip-path:url(#SVGID_00000072986873683071024550000016683504522878245552_);fill:#FFFFFF;" d="M35.5,11.1
		c-0.2,0-0.4,0-0.5-0.1c-0.1-0.1-0.3-0.1-0.4-0.2c-0.1-0.1-0.2-0.2-0.2-0.4c-0.1-0.1-0.1-0.3-0.1-0.5c0-0.2,0-0.3,0-0.6V8.1
		c0-0.2,0-0.4,0-0.6c0-0.2,0.1-0.3,0.1-0.5c0.1-0.1,0.1-0.3,0.2-0.4c0.1-0.1,0.2-0.2,0.4-0.2c0.1-0.1,0.3-0.1,0.5-0.1
		c0.2,0,0.4,0,0.6,0.1c0.2,0.1,0.3,0.2,0.4,0.3c0.1,0.1,0.2,0.3,0.2,0.4c0,0.2,0.1,0.4,0.1,0.6c0,0,0,0.1,0,0.2H36V7.8
		c0-0.1,0-0.2,0-0.2c0-0.1,0-0.1,0-0.2c0-0.1,0-0.1-0.1-0.2c0,0-0.1-0.1-0.1-0.1c0,0-0.1-0.1-0.2-0.1c-0.1,0-0.1,0-0.2,0
		c-0.1,0-0.2,0-0.3,0.1c-0.1,0-0.1,0.1-0.2,0.1c0,0.1-0.1,0.1-0.1,0.2c0,0.1,0,0.2,0,0.3c0,0.1,0,0.2,0,0.3v1.6c0,0.1,0,0.2,0,0.3
		c0,0.1,0,0.2,0.1,0.3c0,0.1,0.1,0.2,0.1,0.2c0,0.1,0.1,0.1,0.2,0.1c0.1,0,0.2,0.1,0.3,0.1c0.1,0,0.2,0,0.3-0.1
		c0.1,0,0.1-0.1,0.2-0.1c0-0.1,0.1-0.1,0.1-0.2c0-0.1,0-0.2,0-0.3c0-0.1,0-0.2,0-0.3V9.5h0.7v0.2c0,0.2,0,0.4-0.1,0.6
		c0,0.2-0.1,0.3-0.2,0.5C36.3,10.9,36.2,11,36,11C35.9,11.1,35.7,11.1,35.5,11.1"/>
	
		<rect x="37.1" y="6.5" style="clip-path:url(#SVGID_00000072986873683071024550000016683504522878245552_);fill:#FFFFFF;" width="0.7" height="4.6"/>
	<polygon style="clip-path:url(#SVGID_00000072986873683071024550000016683504522878245552_);fill:#FFFFFF;" points="38.4,11.1 
		38.4,6.5 40.2,6.5 40.2,7 39.1,7 39.1,8.5 39.9,8.5 39.9,9 39.1,9 39.1,10.6 40.2,10.6 40.2,11.1 	"/>
	<polygon style="clip-path:url(#SVGID_00000072986873683071024550000016683504522878245552_);fill:#FFFFFF;" points="41.3,11.1 
		41.3,7.1 40.5,7.1 40.5,6.5 42.8,6.5 42.8,7.1 42,7.1 42,11.1 	"/>
	<polygon style="clip-path:url(#SVGID_00000072986873683071024550000016683504522878245552_);fill:#FFFFFF;" points="43.9,11.1 
		43.9,9.6 42.9,6.5 43.6,6.5 44.3,8.8 44.9,6.5 45.6,6.5 44.6,9.6 44.6,11.1 	"/>
	<polygon style="clip-path:url(#SVGID_00000072986873683071024550000016683504522878245552_);fill:#FFFFFF;" points="28.4,17.3 
		28.4,12.7 30.2,12.7 30.2,13.2 29.1,13.2 29.1,14.7 29.9,14.7 29.9,15.1 29.1,15.1 29.1,17.3 	"/>
	<path style="clip-path:url(#SVGID_00000072986873683071024550000016683504522878245552_);fill:#FFFFFF;" d="M31.7,17.3
		c-0.2,0-0.4,0-0.6-0.1c-0.2-0.1-0.3-0.2-0.4-0.3c-0.1-0.1-0.2-0.3-0.2-0.5c0-0.2-0.1-0.4-0.1-0.6v-1.7c0-0.2,0-0.5,0.1-0.6
		c0-0.2,0.1-0.3,0.2-0.5c0.1-0.1,0.2-0.2,0.4-0.3c0.2-0.1,0.4-0.1,0.6-0.1c0.4,0,0.8,0.1,1,0.4c0.2,0.3,0.3,0.6,0.3,1.1v1.7
		c0,0.2,0,0.4-0.1,0.6c0,0.2-0.1,0.3-0.2,0.5c-0.1,0.1-0.2,0.2-0.4,0.3C32.2,17.3,32,17.3,31.7,17.3 M31.3,16.6
		c0.1,0.1,0.2,0.2,0.5,0.2c0.2,0,0.4-0.1,0.5-0.2c0.1-0.1,0.1-0.3,0.1-0.6v-2c0-0.3,0-0.5-0.1-0.6c-0.1-0.1-0.2-0.2-0.5-0.2
		c-0.2,0-0.4,0.1-0.5,0.2c-0.1,0.1-0.1,0.3-0.1,0.6v2C31.1,16.2,31.2,16.4,31.3,16.6"/>
	<path style="clip-path:url(#SVGID_00000072986873683071024550000016683504522878245552_);fill:#FFFFFF;" d="M33.5,17.3v-4.6h0.8
		c0.5,0,0.9,0.1,1.1,0.3c0.2,0.2,0.4,0.5,0.4,0.9c0,0.3,0,0.5-0.1,0.7c-0.1,0.2-0.2,0.3-0.4,0.4l0.7,2.3h-0.6l-0.7-2.1h-0.5v2.1
		H33.5z M34.2,14.7h0.2c0.3,0,0.5-0.1,0.6-0.2c0.1-0.1,0.2-0.3,0.2-0.6c0-0.3-0.1-0.4-0.2-0.6c-0.1-0.1-0.3-0.2-0.6-0.2h-0.2V14.7z"
		/>
	<path style="clip-path:url(#SVGID_00000072986873683071024550000016683504522878245552_);fill:#FFFFFF;" d="M28.1,23.5l1-4.6h0.7
		l1,4.6h-0.7l-0.2-1.1H29l-0.2,1.1H28.1z M29.1,21.8h0.7l-0.3-2L29.1,21.8z"/>
	<polygon style="clip-path:url(#SVGID_00000072986873683071024550000016683504522878245552_);fill:#FFFFFF;" points="31.2,23.5 
		31.2,18.9 31.7,18.9 32.8,21.7 32.8,18.9 33.5,18.9 33.5,23.5 33,23.5 31.8,20.4 31.8,23.5 	"/>
	<path style="clip-path:url(#SVGID_00000072986873683071024550000016683504522878245552_);fill:#FFFFFF;" d="M33.9,23.5l1-4.6h0.7
		l1,4.6h-0.7l-0.2-1.1h-0.8l-0.2,1.1H33.9z M34.9,21.8h0.7l-0.3-2L34.9,21.8z"/>
	<polygon style="clip-path:url(#SVGID_00000072986873683071024550000016683504522878245552_);fill:#FFFFFF;" points="36.9,23.5 
		36.9,18.9 37.6,18.9 37.6,23 38.7,23 38.7,23.5 	"/>
	<polygon style="clip-path:url(#SVGID_00000072986873683071024550000016683504522878245552_);fill:#FFFFFF;" points="39.4,23.5 
		39.4,22 38.4,18.9 39.1,18.9 39.8,21.2 40.4,18.9 41.1,18.9 40.1,22 40.1,23.5 	"/>
	<polygon style="clip-path:url(#SVGID_00000072986873683071024550000016683504522878245552_);fill:#FFFFFF;" points="42.1,23.5 
		42.1,19.4 41.2,19.4 41.2,18.9 43.5,18.9 43.5,19.4 42.7,19.4 42.7,23.5 	"/>
	
		<rect x="44" y="18.9" style="clip-path:url(#SVGID_00000072986873683071024550000016683504522878245552_);fill:#FFFFFF;" width="0.7" height="4.6"/>
	<path style="clip-path:url(#SVGID_00000072986873683071024550000016683504522878245552_);fill:#FFFFFF;" d="M46.4,23.5
		c-0.2,0-0.4,0-0.5-0.1c-0.1-0.1-0.3-0.1-0.4-0.2c-0.1-0.1-0.2-0.2-0.2-0.4c-0.1-0.1-0.1-0.3-0.1-0.5c0-0.2,0-0.3,0-0.6v-1.3
		c0-0.2,0-0.4,0-0.6c0-0.2,0.1-0.3,0.1-0.5c0.1-0.1,0.1-0.3,0.2-0.4s0.2-0.2,0.4-0.2c0.1-0.1,0.3-0.1,0.5-0.1c0.2,0,0.4,0,0.6,0.1
		c0.2,0.1,0.3,0.2,0.4,0.3c0.1,0.1,0.2,0.3,0.2,0.4c0,0.2,0.1,0.4,0.1,0.6c0,0,0,0.1,0,0.2H47v-0.1c0-0.1,0-0.2,0-0.2
		c0-0.1,0-0.1,0-0.2c0-0.1,0-0.1-0.1-0.2c0,0-0.1-0.1-0.1-0.1c0,0-0.1-0.1-0.2-0.1c-0.1,0-0.1,0-0.2,0c-0.1,0-0.2,0-0.3,0.1
		c-0.1,0-0.1,0.1-0.2,0.1c0,0.1-0.1,0.1-0.1,0.2c0,0.1,0,0.2,0,0.3c0,0.1,0,0.2,0,0.3V22c0,0.1,0,0.2,0,0.3c0,0.1,0,0.2,0.1,0.3
		c0,0.1,0.1,0.2,0.1,0.2c0,0.1,0.1,0.1,0.2,0.1c0.1,0,0.2,0.1,0.3,0.1c0.1,0,0.2,0,0.3-0.1c0.1,0,0.1-0.1,0.2-0.1
		c0-0.1,0.1-0.1,0.1-0.2c0-0.1,0-0.2,0-0.3c0-0.1,0-0.2,0-0.3v-0.2h0.7V22c0,0.2,0,0.4-0.1,0.6c0,0.2-0.1,0.3-0.2,0.5
		c-0.1,0.1-0.2,0.2-0.4,0.3C46.8,23.5,46.6,23.5,46.4,23.5"/>
	<path style="clip-path:url(#SVGID_00000072986873683071024550000016683504522878245552_);fill:#FFFFFF;" d="M28.4,29.6V25h1.1
		c0.8,0,1.1,0.4,1.1,1.3c0,0.4-0.1,0.7-0.3,0.9c-0.2,0.2-0.5,0.3-0.9,0.3h-0.5v2.1H28.4z M29.1,27h0.2c0.1,0,0.3,0,0.4,0
		c0.1,0,0.2,0,0.3-0.1c0.1,0,0.1-0.1,0.2-0.2c0-0.1,0-0.2,0-0.3c0-0.2,0-0.3,0-0.4c0-0.1-0.1-0.2-0.1-0.2c-0.1-0.1-0.1-0.1-0.2-0.1
		c-0.1,0-0.2,0-0.4,0h-0.2V27z"/>
	<polygon style="clip-path:url(#SVGID_00000072986873683071024550000016683504522878245552_);fill:#FFFFFF;" points="31.1,29.6 
		31.1,25 31.8,25 31.8,27 32.9,27 32.9,25 33.6,25 33.6,29.6 32.9,29.6 32.9,27.5 31.8,27.5 31.8,29.6 	"/>
	
		<rect x="34.2" y="25" style="clip-path:url(#SVGID_00000072986873683071024550000016683504522878245552_);fill:#FFFFFF;" width="0.7" height="4.6"/>
	<polygon style="clip-path:url(#SVGID_00000072986873683071024550000016683504522878245552_);fill:#FFFFFF;" points="35.4,29.6 
		35.4,25 36.1,25 36.1,29.1 37.2,29.1 37.2,29.6 	"/>
	<path style="clip-path:url(#SVGID_00000072986873683071024550000016683504522878245552_);fill:#FFFFFF;" d="M38.8,29.7
		c-0.2,0-0.4,0-0.6-0.1c-0.2-0.1-0.3-0.2-0.4-0.3c-0.1-0.1-0.2-0.3-0.2-0.5c0-0.2-0.1-0.4-0.1-0.6v-1.7c0-0.2,0-0.4,0.1-0.6
		c0-0.2,0.1-0.3,0.2-0.5c0.1-0.1,0.2-0.2,0.4-0.3c0.2-0.1,0.4-0.1,0.6-0.1c0.4,0,0.8,0.1,1,0.4c0.2,0.3,0.3,0.6,0.3,1.1v1.7
		c0,0.2,0,0.4-0.1,0.6c0,0.2-0.1,0.3-0.2,0.5c-0.1,0.1-0.2,0.2-0.4,0.3C39.2,29.6,39,29.7,38.8,29.7 M38.3,28.9
		c0.1,0.1,0.2,0.2,0.5,0.2c0.2,0,0.4-0.1,0.5-0.2c0.1-0.1,0.1-0.3,0.1-0.6v-2c0-0.3,0-0.5-0.1-0.6c-0.1-0.1-0.2-0.2-0.5-0.2
		c-0.2,0-0.4,0.1-0.5,0.2c-0.1,0.1-0.1,0.3-0.1,0.6v2C38.2,28.6,38.2,28.8,38.3,28.9"/>
	<path style="clip-path:url(#SVGID_00000072986873683071024550000016683504522878245552_);fill:#FFFFFF;" d="M41.8,29.7
		c-0.4,0-0.7-0.1-0.9-0.4c-0.2-0.2-0.3-0.6-0.4-1l0.7-0.2c0,0.7,0.2,1,0.7,1c0.3,0,0.5-0.2,0.5-0.5c0-0.1,0-0.2,0-0.3
		c0-0.1-0.1-0.2-0.1-0.2C42.1,28.1,42,28,42,28c0,0-0.1-0.1-0.2-0.2L41,27.2c-0.1-0.1-0.3-0.3-0.4-0.4c-0.1-0.2-0.1-0.4-0.1-0.6
		c0-0.3,0.1-0.6,0.3-0.8c0.2-0.2,0.5-0.3,0.8-0.3c0.4,0,0.7,0.1,0.9,0.3c0.2,0.2,0.4,0.4,0.4,0.8c0,0,0,0.1,0,0.1l-0.7,0.2
		c0,0,0-0.1,0-0.1c0-0.2-0.1-0.4-0.2-0.5c-0.1-0.1-0.3-0.2-0.4-0.2c-0.2,0-0.3,0-0.4,0.1c-0.1,0.1-0.1,0.2-0.1,0.4
		c0,0.3,0.1,0.5,0.3,0.6l0.8,0.7c0.4,0.4,0.7,0.8,0.7,1.3c0,0.3-0.1,0.6-0.3,0.8C42.4,29.6,42.2,29.7,41.8,29.7"/>
	<path style="clip-path:url(#SVGID_00000072986873683071024550000016683504522878245552_);fill:#FFFFFF;" d="M44.7,29.7
		c-0.2,0-0.4,0-0.6-0.1c-0.2-0.1-0.3-0.2-0.4-0.3c-0.1-0.1-0.2-0.3-0.2-0.5c0-0.2-0.1-0.4-0.1-0.6v-1.7c0-0.2,0-0.4,0.1-0.6
		c0-0.2,0.1-0.3,0.2-0.5c0.1-0.1,0.2-0.2,0.4-0.3c0.2-0.1,0.4-0.1,0.6-0.1c0.4,0,0.8,0.1,1,0.4c0.2,0.3,0.3,0.6,0.3,1.1v1.7
		c0,0.2,0,0.4-0.1,0.6c0,0.2-0.1,0.3-0.2,0.5c-0.1,0.1-0.2,0.2-0.4,0.3C45.1,29.6,44.9,29.7,44.7,29.7 M44.2,28.9
		c0.1,0.1,0.2,0.2,0.5,0.2c0.2,0,0.4-0.1,0.5-0.2c0.1-0.1,0.1-0.3,0.1-0.6v-2c0-0.3,0-0.5-0.1-0.6c-0.1-0.1-0.2-0.2-0.5-0.2
		c-0.2,0-0.4,0.1-0.5,0.2c-0.1,0.1-0.1,0.3-0.1,0.6v2C44,28.6,44.1,28.8,44.2,28.9"/>
	<path style="clip-path:url(#SVGID_00000072986873683071024550000016683504522878245552_);fill:#FFFFFF;" d="M46.5,29.6V25h1.1
		c0.8,0,1.1,0.4,1.1,1.3c0,0.4-0.1,0.7-0.3,0.9c-0.2,0.2-0.5,0.3-0.9,0.3h-0.5v2.1H46.5z M47.1,27h0.2c0.1,0,0.3,0,0.4,0
		c0.1,0,0.2,0,0.2-0.1c0.1,0,0.1-0.1,0.2-0.2c0-0.1,0-0.2,0-0.3c0-0.2,0-0.3,0-0.4c0-0.1-0.1-0.2-0.1-0.2c-0.1-0.1-0.1-0.1-0.3-0.1
		c-0.1,0-0.2,0-0.4,0h-0.2V27z"/>
	<polygon style="clip-path:url(#SVGID_00000072986873683071024550000016683504522878245552_);fill:#FFFFFF;" points="49.2,29.6 
		49.2,25 49.8,25 49.8,27 51,27 51,25 51.6,25 51.6,29.6 51,29.6 51,27.5 49.8,27.5 49.8,29.6 	"/>
	<polygon style="clip-path:url(#SVGID_00000072986873683071024550000016683504522878245552_);fill:#FFFFFF;" points="52.9,29.6 
		52.9,28.2 52,25 52.6,25 53.3,27.3 53.9,25 54.6,25 53.6,28.2 53.6,29.6 	"/>
</g>
</svg>
